<mxfile host="app.diagrams.net" modified="2024-02-13T13:43:28.300Z" agent="Mozilla/5.0 (Windows NT 10.0; Win64; x64) AppleWebKit/537.36 (KHTML, like Gecko) Chrome/121.0.0.0 Safari/537.36 Edg/121.0.0.0" etag="7ijXYKWbcv2kYWt75ue8" version="23.1.2" type="device">
  <diagram name="Page-1" id="f1m1R5kQ8RCUvz3bjzbn">
    <mxGraphModel dx="1425" dy="795" grid="1" gridSize="10" guides="1" tooltips="1" connect="1" arrows="1" fold="1" page="1" pageScale="1" pageWidth="827" pageHeight="1169" math="0" shadow="0">
      <root>
        <mxCell id="0" />
        <mxCell id="1" parent="0" />
        <mxCell id="NCAZwiIMH78sjrAuGcfg-7" value="" style="edgeStyle=orthogonalEdgeStyle;rounded=0;orthogonalLoop=1;jettySize=auto;html=1;" edge="1" parent="1" source="NCAZwiIMH78sjrAuGcfg-1" target="NCAZwiIMH78sjrAuGcfg-2">
          <mxGeometry relative="1" as="geometry" />
        </mxCell>
        <mxCell id="NCAZwiIMH78sjrAuGcfg-1" value="Start" style="strokeWidth=2;html=1;shape=mxgraph.flowchart.start_1;whiteSpace=wrap;" vertex="1" parent="1">
          <mxGeometry x="170" y="160" width="100" height="60" as="geometry" />
        </mxCell>
        <mxCell id="NCAZwiIMH78sjrAuGcfg-9" value="" style="edgeStyle=orthogonalEdgeStyle;rounded=0;orthogonalLoop=1;jettySize=auto;html=1;" edge="1" parent="1" source="NCAZwiIMH78sjrAuGcfg-2" target="NCAZwiIMH78sjrAuGcfg-8">
          <mxGeometry relative="1" as="geometry" />
        </mxCell>
        <mxCell id="NCAZwiIMH78sjrAuGcfg-2" value="print info all tier" style="rounded=1;whiteSpace=wrap;html=1;absoluteArcSize=1;arcSize=14;strokeWidth=2;" vertex="1" parent="1">
          <mxGeometry x="170" y="250" width="100" height="100" as="geometry" />
        </mxCell>
        <mxCell id="NCAZwiIMH78sjrAuGcfg-3" value="Print All Tier" style="text;html=1;strokeColor=none;fillColor=none;align=center;verticalAlign=middle;whiteSpace=wrap;rounded=0;" vertex="1" parent="1">
          <mxGeometry x="120" y="90" width="200" height="30" as="geometry" />
        </mxCell>
        <mxCell id="NCAZwiIMH78sjrAuGcfg-4" value="Print Tier Benefit" style="text;html=1;strokeColor=none;fillColor=none;align=center;verticalAlign=middle;whiteSpace=wrap;rounded=0;" vertex="1" parent="1">
          <mxGeometry x="360" y="90" width="200" height="30" as="geometry" />
        </mxCell>
        <mxCell id="NCAZwiIMH78sjrAuGcfg-5" value="Predict" style="text;html=1;strokeColor=none;fillColor=none;align=center;verticalAlign=middle;whiteSpace=wrap;rounded=0;" vertex="1" parent="1">
          <mxGeometry x="640" y="90" width="200" height="30" as="geometry" />
        </mxCell>
        <mxCell id="NCAZwiIMH78sjrAuGcfg-6" value="Print Total Belanja" style="text;html=1;strokeColor=none;fillColor=none;align=center;verticalAlign=middle;whiteSpace=wrap;rounded=0;" vertex="1" parent="1">
          <mxGeometry x="1380" y="100" width="200" height="30" as="geometry" />
        </mxCell>
        <mxCell id="NCAZwiIMH78sjrAuGcfg-8" value="Stop" style="strokeWidth=2;html=1;shape=mxgraph.flowchart.start_1;whiteSpace=wrap;" vertex="1" parent="1">
          <mxGeometry x="170" y="390" width="100" height="60" as="geometry" />
        </mxCell>
        <mxCell id="NCAZwiIMH78sjrAuGcfg-10" value="" style="edgeStyle=orthogonalEdgeStyle;rounded=0;orthogonalLoop=1;jettySize=auto;html=1;" edge="1" parent="1" source="NCAZwiIMH78sjrAuGcfg-11" target="NCAZwiIMH78sjrAuGcfg-13">
          <mxGeometry relative="1" as="geometry" />
        </mxCell>
        <mxCell id="NCAZwiIMH78sjrAuGcfg-11" value="Start" style="strokeWidth=2;html=1;shape=mxgraph.flowchart.start_1;whiteSpace=wrap;" vertex="1" parent="1">
          <mxGeometry x="410" y="160" width="100" height="60" as="geometry" />
        </mxCell>
        <mxCell id="NCAZwiIMH78sjrAuGcfg-12" value="" style="edgeStyle=orthogonalEdgeStyle;rounded=0;orthogonalLoop=1;jettySize=auto;html=1;" edge="1" parent="1" source="NCAZwiIMH78sjrAuGcfg-13">
          <mxGeometry relative="1" as="geometry">
            <mxPoint x="460" y="390" as="targetPoint" />
          </mxGeometry>
        </mxCell>
        <mxCell id="NCAZwiIMH78sjrAuGcfg-13" value="print info tier benefit" style="rounded=1;whiteSpace=wrap;html=1;absoluteArcSize=1;arcSize=14;strokeWidth=2;" vertex="1" parent="1">
          <mxGeometry x="410" y="250" width="100" height="100" as="geometry" />
        </mxCell>
        <mxCell id="NCAZwiIMH78sjrAuGcfg-14" value="Stop" style="strokeWidth=2;html=1;shape=mxgraph.flowchart.start_1;whiteSpace=wrap;" vertex="1" parent="1">
          <mxGeometry x="410" y="390" width="100" height="60" as="geometry" />
        </mxCell>
        <mxCell id="NCAZwiIMH78sjrAuGcfg-17" value="" style="edgeStyle=orthogonalEdgeStyle;rounded=0;orthogonalLoop=1;jettySize=auto;html=1;entryX=0.5;entryY=0;entryDx=0;entryDy=0;entryPerimeter=0;" edge="1" parent="1" source="NCAZwiIMH78sjrAuGcfg-15" target="NCAZwiIMH78sjrAuGcfg-18">
          <mxGeometry relative="1" as="geometry">
            <mxPoint x="740" y="250" as="targetPoint" />
          </mxGeometry>
        </mxCell>
        <mxCell id="NCAZwiIMH78sjrAuGcfg-15" value="Start" style="strokeWidth=2;html=1;shape=mxgraph.flowchart.start_1;whiteSpace=wrap;" vertex="1" parent="1">
          <mxGeometry x="690" y="160" width="100" height="60" as="geometry" />
        </mxCell>
        <mxCell id="NCAZwiIMH78sjrAuGcfg-20" value="" style="edgeStyle=orthogonalEdgeStyle;rounded=0;orthogonalLoop=1;jettySize=auto;html=1;" edge="1" parent="1" source="NCAZwiIMH78sjrAuGcfg-18" target="NCAZwiIMH78sjrAuGcfg-19">
          <mxGeometry relative="1" as="geometry" />
        </mxCell>
        <mxCell id="NCAZwiIMH78sjrAuGcfg-26" value="" style="edgeStyle=orthogonalEdgeStyle;rounded=0;orthogonalLoop=1;jettySize=auto;html=1;" edge="1" parent="1" source="NCAZwiIMH78sjrAuGcfg-18" target="NCAZwiIMH78sjrAuGcfg-25">
          <mxGeometry relative="1" as="geometry" />
        </mxCell>
        <mxCell id="NCAZwiIMH78sjrAuGcfg-18" value="List tier belum&lt;br&gt;Platinum" style="strokeWidth=2;html=1;shape=mxgraph.flowchart.decision;whiteSpace=wrap;" vertex="1" parent="1">
          <mxGeometry x="690" y="290" width="100" height="100" as="geometry" />
        </mxCell>
        <mxCell id="NCAZwiIMH78sjrAuGcfg-22" value="" style="edgeStyle=orthogonalEdgeStyle;rounded=0;orthogonalLoop=1;jettySize=auto;html=1;" edge="1" parent="1" source="NCAZwiIMH78sjrAuGcfg-19" target="NCAZwiIMH78sjrAuGcfg-21">
          <mxGeometry relative="1" as="geometry" />
        </mxCell>
        <mxCell id="NCAZwiIMH78sjrAuGcfg-19" value="Perhitungan Jarak" style="rounded=1;whiteSpace=wrap;html=1;strokeWidth=2;" vertex="1" parent="1">
          <mxGeometry x="860" y="310" width="120" height="60" as="geometry" />
        </mxCell>
        <mxCell id="NCAZwiIMH78sjrAuGcfg-21" value="Nilai jaraknya disimpan" style="rounded=1;whiteSpace=wrap;html=1;strokeWidth=2;" vertex="1" parent="1">
          <mxGeometry x="1060" y="310" width="120" height="60" as="geometry" />
        </mxCell>
        <mxCell id="NCAZwiIMH78sjrAuGcfg-23" style="edgeStyle=orthogonalEdgeStyle;rounded=0;orthogonalLoop=1;jettySize=auto;html=1;exitX=0.5;exitY=0;exitDx=0;exitDy=0;" edge="1" parent="1" source="NCAZwiIMH78sjrAuGcfg-21">
          <mxGeometry relative="1" as="geometry">
            <mxPoint x="740" y="260" as="targetPoint" />
            <Array as="points">
              <mxPoint x="1120" y="260" />
              <mxPoint x="740" y="260" />
            </Array>
          </mxGeometry>
        </mxCell>
        <mxCell id="NCAZwiIMH78sjrAuGcfg-24" value="Yes" style="text;html=1;strokeColor=none;fillColor=none;align=center;verticalAlign=middle;whiteSpace=wrap;rounded=0;" vertex="1" parent="1">
          <mxGeometry x="790" y="310" width="60" height="30" as="geometry" />
        </mxCell>
        <mxCell id="NCAZwiIMH78sjrAuGcfg-29" value="" style="edgeStyle=orthogonalEdgeStyle;rounded=0;orthogonalLoop=1;jettySize=auto;html=1;" edge="1" parent="1" source="NCAZwiIMH78sjrAuGcfg-25" target="NCAZwiIMH78sjrAuGcfg-28">
          <mxGeometry relative="1" as="geometry" />
        </mxCell>
        <mxCell id="NCAZwiIMH78sjrAuGcfg-25" value="Diurutkan" style="rounded=1;whiteSpace=wrap;html=1;strokeWidth=2;" vertex="1" parent="1">
          <mxGeometry x="680" y="440" width="120" height="60" as="geometry" />
        </mxCell>
        <mxCell id="NCAZwiIMH78sjrAuGcfg-27" value="No" style="text;html=1;strokeColor=none;fillColor=none;align=center;verticalAlign=middle;whiteSpace=wrap;rounded=0;" vertex="1" parent="1">
          <mxGeometry x="740" y="390" width="60" height="30" as="geometry" />
        </mxCell>
        <mxCell id="NCAZwiIMH78sjrAuGcfg-28" value="Print Tier paling&lt;br&gt;dekat" style="rounded=1;whiteSpace=wrap;html=1;strokeWidth=2;" vertex="1" parent="1">
          <mxGeometry x="680" y="540" width="120" height="60" as="geometry" />
        </mxCell>
        <mxCell id="NCAZwiIMH78sjrAuGcfg-32" value="" style="edgeStyle=orthogonalEdgeStyle;rounded=0;orthogonalLoop=1;jettySize=auto;html=1;" edge="1" parent="1" source="NCAZwiIMH78sjrAuGcfg-30" target="NCAZwiIMH78sjrAuGcfg-31">
          <mxGeometry relative="1" as="geometry" />
        </mxCell>
        <mxCell id="NCAZwiIMH78sjrAuGcfg-30" value="Start" style="strokeWidth=2;html=1;shape=mxgraph.flowchart.start_1;whiteSpace=wrap;" vertex="1" parent="1">
          <mxGeometry x="1430" y="140" width="100" height="60" as="geometry" />
        </mxCell>
        <mxCell id="NCAZwiIMH78sjrAuGcfg-43" value="" style="edgeStyle=orthogonalEdgeStyle;rounded=0;orthogonalLoop=1;jettySize=auto;html=1;" edge="1" parent="1" source="NCAZwiIMH78sjrAuGcfg-31" target="NCAZwiIMH78sjrAuGcfg-42">
          <mxGeometry relative="1" as="geometry" />
        </mxCell>
        <mxCell id="NCAZwiIMH78sjrAuGcfg-31" value="&lt;br&gt;List Harga&lt;br&gt;Barang" style="html=1;strokeWidth=2;shape=manualInput;whiteSpace=wrap;rounded=1;size=26;arcSize=11;" vertex="1" parent="1">
          <mxGeometry x="1430" y="230" width="100" height="60" as="geometry" />
        </mxCell>
        <mxCell id="NCAZwiIMH78sjrAuGcfg-36" value="" style="edgeStyle=orthogonalEdgeStyle;rounded=0;orthogonalLoop=1;jettySize=auto;html=1;" edge="1" parent="1" source="NCAZwiIMH78sjrAuGcfg-33" target="NCAZwiIMH78sjrAuGcfg-35">
          <mxGeometry relative="1" as="geometry" />
        </mxCell>
        <mxCell id="NCAZwiIMH78sjrAuGcfg-46" value="" style="edgeStyle=orthogonalEdgeStyle;rounded=0;orthogonalLoop=1;jettySize=auto;html=1;" edge="1" parent="1" source="NCAZwiIMH78sjrAuGcfg-33" target="NCAZwiIMH78sjrAuGcfg-45">
          <mxGeometry relative="1" as="geometry" />
        </mxCell>
        <mxCell id="NCAZwiIMH78sjrAuGcfg-33" value="Silver" style="strokeWidth=2;html=1;shape=mxgraph.flowchart.decision;whiteSpace=wrap;" vertex="1" parent="1">
          <mxGeometry x="1430" y="460" width="100" height="100" as="geometry" />
        </mxCell>
        <mxCell id="NCAZwiIMH78sjrAuGcfg-38" value="" style="edgeStyle=orthogonalEdgeStyle;rounded=0;orthogonalLoop=1;jettySize=auto;html=1;" edge="1" parent="1" source="NCAZwiIMH78sjrAuGcfg-35" target="NCAZwiIMH78sjrAuGcfg-37">
          <mxGeometry relative="1" as="geometry" />
        </mxCell>
        <mxCell id="NCAZwiIMH78sjrAuGcfg-66" value="" style="edgeStyle=orthogonalEdgeStyle;rounded=0;orthogonalLoop=1;jettySize=auto;html=1;" edge="1" parent="1" source="NCAZwiIMH78sjrAuGcfg-35" target="NCAZwiIMH78sjrAuGcfg-52">
          <mxGeometry relative="1" as="geometry" />
        </mxCell>
        <mxCell id="NCAZwiIMH78sjrAuGcfg-35" value="Gold" style="strokeWidth=2;html=1;shape=mxgraph.flowchart.decision;whiteSpace=wrap;" vertex="1" parent="1">
          <mxGeometry x="1430" y="580" width="100" height="100" as="geometry" />
        </mxCell>
        <mxCell id="NCAZwiIMH78sjrAuGcfg-40" value="" style="edgeStyle=orthogonalEdgeStyle;rounded=0;orthogonalLoop=1;jettySize=auto;html=1;" edge="1" parent="1" source="NCAZwiIMH78sjrAuGcfg-37" target="NCAZwiIMH78sjrAuGcfg-39">
          <mxGeometry relative="1" as="geometry" />
        </mxCell>
        <mxCell id="NCAZwiIMH78sjrAuGcfg-67" value="" style="edgeStyle=orthogonalEdgeStyle;rounded=0;orthogonalLoop=1;jettySize=auto;html=1;" edge="1" parent="1" source="NCAZwiIMH78sjrAuGcfg-37" target="NCAZwiIMH78sjrAuGcfg-57">
          <mxGeometry relative="1" as="geometry" />
        </mxCell>
        <mxCell id="NCAZwiIMH78sjrAuGcfg-37" value="Platinum" style="strokeWidth=2;html=1;shape=mxgraph.flowchart.decision;whiteSpace=wrap;" vertex="1" parent="1">
          <mxGeometry x="1430" y="700" width="100" height="100" as="geometry" />
        </mxCell>
        <mxCell id="NCAZwiIMH78sjrAuGcfg-68" value="" style="edgeStyle=orthogonalEdgeStyle;rounded=0;orthogonalLoop=1;jettySize=auto;html=1;" edge="1" parent="1" source="NCAZwiIMH78sjrAuGcfg-39" target="NCAZwiIMH78sjrAuGcfg-62">
          <mxGeometry relative="1" as="geometry" />
        </mxCell>
        <mxCell id="NCAZwiIMH78sjrAuGcfg-72" value="" style="edgeStyle=orthogonalEdgeStyle;rounded=0;orthogonalLoop=1;jettySize=auto;html=1;" edge="1" parent="1" source="NCAZwiIMH78sjrAuGcfg-39" target="NCAZwiIMH78sjrAuGcfg-69">
          <mxGeometry relative="1" as="geometry" />
        </mxCell>
        <mxCell id="NCAZwiIMH78sjrAuGcfg-39" value="None" style="strokeWidth=2;html=1;shape=mxgraph.flowchart.decision;whiteSpace=wrap;" vertex="1" parent="1">
          <mxGeometry x="1430" y="820" width="100" height="100" as="geometry" />
        </mxCell>
        <mxCell id="NCAZwiIMH78sjrAuGcfg-44" value="" style="edgeStyle=orthogonalEdgeStyle;rounded=0;orthogonalLoop=1;jettySize=auto;html=1;" edge="1" parent="1" source="NCAZwiIMH78sjrAuGcfg-42" target="NCAZwiIMH78sjrAuGcfg-33">
          <mxGeometry relative="1" as="geometry" />
        </mxCell>
        <mxCell id="NCAZwiIMH78sjrAuGcfg-42" value="Perhitungan&lt;br&gt;Total Price" style="rounded=1;whiteSpace=wrap;html=1;absoluteArcSize=1;arcSize=14;strokeWidth=2;" vertex="1" parent="1">
          <mxGeometry x="1430" y="330" width="100" height="100" as="geometry" />
        </mxCell>
        <mxCell id="NCAZwiIMH78sjrAuGcfg-48" value="" style="edgeStyle=orthogonalEdgeStyle;rounded=0;orthogonalLoop=1;jettySize=auto;html=1;" edge="1" parent="1" source="NCAZwiIMH78sjrAuGcfg-45" target="NCAZwiIMH78sjrAuGcfg-47">
          <mxGeometry relative="1" as="geometry" />
        </mxCell>
        <mxCell id="NCAZwiIMH78sjrAuGcfg-45" value="Perhitungan&lt;br&gt;Discount" style="rounded=1;whiteSpace=wrap;html=1;strokeWidth=2;" vertex="1" parent="1">
          <mxGeometry x="1560" y="480" width="120" height="60" as="geometry" />
        </mxCell>
        <mxCell id="NCAZwiIMH78sjrAuGcfg-50" value="" style="edgeStyle=orthogonalEdgeStyle;rounded=0;orthogonalLoop=1;jettySize=auto;html=1;" edge="1" parent="1" source="NCAZwiIMH78sjrAuGcfg-47" target="NCAZwiIMH78sjrAuGcfg-49">
          <mxGeometry relative="1" as="geometry" />
        </mxCell>
        <mxCell id="NCAZwiIMH78sjrAuGcfg-47" value="Perhitungan Final Price" style="rounded=1;whiteSpace=wrap;html=1;strokeWidth=2;" vertex="1" parent="1">
          <mxGeometry x="1720" y="480" width="120" height="60" as="geometry" />
        </mxCell>
        <mxCell id="NCAZwiIMH78sjrAuGcfg-49" value="Cetak Final Price" style="whiteSpace=wrap;html=1;rounded=1;strokeWidth=2;" vertex="1" parent="1">
          <mxGeometry x="1880" y="480" width="120" height="60" as="geometry" />
        </mxCell>
        <mxCell id="NCAZwiIMH78sjrAuGcfg-51" value="" style="edgeStyle=orthogonalEdgeStyle;rounded=0;orthogonalLoop=1;jettySize=auto;html=1;" edge="1" parent="1" source="NCAZwiIMH78sjrAuGcfg-52" target="NCAZwiIMH78sjrAuGcfg-54">
          <mxGeometry relative="1" as="geometry" />
        </mxCell>
        <mxCell id="NCAZwiIMH78sjrAuGcfg-52" value="Perhitungan&lt;br&gt;Discount" style="rounded=1;whiteSpace=wrap;html=1;strokeWidth=2;" vertex="1" parent="1">
          <mxGeometry x="1560" y="600" width="120" height="60" as="geometry" />
        </mxCell>
        <mxCell id="NCAZwiIMH78sjrAuGcfg-53" value="" style="edgeStyle=orthogonalEdgeStyle;rounded=0;orthogonalLoop=1;jettySize=auto;html=1;" edge="1" parent="1" source="NCAZwiIMH78sjrAuGcfg-54" target="NCAZwiIMH78sjrAuGcfg-55">
          <mxGeometry relative="1" as="geometry" />
        </mxCell>
        <mxCell id="NCAZwiIMH78sjrAuGcfg-54" value="Perhitungan Final Price" style="rounded=1;whiteSpace=wrap;html=1;strokeWidth=2;" vertex="1" parent="1">
          <mxGeometry x="1720" y="600" width="120" height="60" as="geometry" />
        </mxCell>
        <mxCell id="NCAZwiIMH78sjrAuGcfg-74" style="edgeStyle=orthogonalEdgeStyle;rounded=0;orthogonalLoop=1;jettySize=auto;html=1;exitX=1;exitY=0.5;exitDx=0;exitDy=0;" edge="1" parent="1" source="NCAZwiIMH78sjrAuGcfg-55">
          <mxGeometry relative="1" as="geometry">
            <mxPoint x="2130" y="629.8275862068965" as="targetPoint" />
          </mxGeometry>
        </mxCell>
        <mxCell id="NCAZwiIMH78sjrAuGcfg-55" value="Cetak Final Price" style="whiteSpace=wrap;html=1;rounded=1;strokeWidth=2;" vertex="1" parent="1">
          <mxGeometry x="1880" y="600" width="120" height="60" as="geometry" />
        </mxCell>
        <mxCell id="NCAZwiIMH78sjrAuGcfg-56" value="" style="edgeStyle=orthogonalEdgeStyle;rounded=0;orthogonalLoop=1;jettySize=auto;html=1;" edge="1" parent="1" source="NCAZwiIMH78sjrAuGcfg-57" target="NCAZwiIMH78sjrAuGcfg-59">
          <mxGeometry relative="1" as="geometry" />
        </mxCell>
        <mxCell id="NCAZwiIMH78sjrAuGcfg-57" value="Perhitungan&lt;br&gt;Discount" style="rounded=1;whiteSpace=wrap;html=1;strokeWidth=2;" vertex="1" parent="1">
          <mxGeometry x="1560" y="720" width="120" height="60" as="geometry" />
        </mxCell>
        <mxCell id="NCAZwiIMH78sjrAuGcfg-58" value="" style="edgeStyle=orthogonalEdgeStyle;rounded=0;orthogonalLoop=1;jettySize=auto;html=1;" edge="1" parent="1" source="NCAZwiIMH78sjrAuGcfg-59" target="NCAZwiIMH78sjrAuGcfg-60">
          <mxGeometry relative="1" as="geometry" />
        </mxCell>
        <mxCell id="NCAZwiIMH78sjrAuGcfg-59" value="Perhitungan Final Price" style="rounded=1;whiteSpace=wrap;html=1;strokeWidth=2;" vertex="1" parent="1">
          <mxGeometry x="1720" y="720" width="120" height="60" as="geometry" />
        </mxCell>
        <mxCell id="NCAZwiIMH78sjrAuGcfg-75" style="edgeStyle=orthogonalEdgeStyle;rounded=0;orthogonalLoop=1;jettySize=auto;html=1;exitX=1;exitY=0.5;exitDx=0;exitDy=0;" edge="1" parent="1" source="NCAZwiIMH78sjrAuGcfg-60">
          <mxGeometry relative="1" as="geometry">
            <mxPoint x="2130" y="749.8275862068965" as="targetPoint" />
          </mxGeometry>
        </mxCell>
        <mxCell id="NCAZwiIMH78sjrAuGcfg-60" value="Cetak Final Price" style="whiteSpace=wrap;html=1;rounded=1;strokeWidth=2;" vertex="1" parent="1">
          <mxGeometry x="1880" y="720" width="120" height="60" as="geometry" />
        </mxCell>
        <mxCell id="NCAZwiIMH78sjrAuGcfg-61" value="" style="edgeStyle=orthogonalEdgeStyle;rounded=0;orthogonalLoop=1;jettySize=auto;html=1;" edge="1" parent="1" source="NCAZwiIMH78sjrAuGcfg-62" target="NCAZwiIMH78sjrAuGcfg-64">
          <mxGeometry relative="1" as="geometry" />
        </mxCell>
        <mxCell id="NCAZwiIMH78sjrAuGcfg-62" value="Perhitungan&lt;br&gt;Discount" style="rounded=1;whiteSpace=wrap;html=1;strokeWidth=2;" vertex="1" parent="1">
          <mxGeometry x="1560" y="840" width="120" height="60" as="geometry" />
        </mxCell>
        <mxCell id="NCAZwiIMH78sjrAuGcfg-63" value="" style="edgeStyle=orthogonalEdgeStyle;rounded=0;orthogonalLoop=1;jettySize=auto;html=1;" edge="1" parent="1" source="NCAZwiIMH78sjrAuGcfg-64" target="NCAZwiIMH78sjrAuGcfg-65">
          <mxGeometry relative="1" as="geometry" />
        </mxCell>
        <mxCell id="NCAZwiIMH78sjrAuGcfg-64" value="Perhitungan Final Price" style="rounded=1;whiteSpace=wrap;html=1;strokeWidth=2;" vertex="1" parent="1">
          <mxGeometry x="1720" y="840" width="120" height="60" as="geometry" />
        </mxCell>
        <mxCell id="NCAZwiIMH78sjrAuGcfg-76" style="edgeStyle=orthogonalEdgeStyle;rounded=0;orthogonalLoop=1;jettySize=auto;html=1;exitX=1;exitY=0.5;exitDx=0;exitDy=0;" edge="1" parent="1" source="NCAZwiIMH78sjrAuGcfg-65">
          <mxGeometry relative="1" as="geometry">
            <mxPoint x="2130" y="869.8275862068965" as="targetPoint" />
          </mxGeometry>
        </mxCell>
        <mxCell id="NCAZwiIMH78sjrAuGcfg-65" value="Cetak Final Price" style="whiteSpace=wrap;html=1;rounded=1;strokeWidth=2;" vertex="1" parent="1">
          <mxGeometry x="1880" y="840" width="120" height="60" as="geometry" />
        </mxCell>
        <mxCell id="NCAZwiIMH78sjrAuGcfg-69" value="Stop" style="strokeWidth=2;html=1;shape=mxgraph.flowchart.start_1;whiteSpace=wrap;" vertex="1" parent="1">
          <mxGeometry x="1430" y="1020" width="100" height="60" as="geometry" />
        </mxCell>
        <mxCell id="NCAZwiIMH78sjrAuGcfg-73" style="edgeStyle=orthogonalEdgeStyle;rounded=0;orthogonalLoop=1;jettySize=auto;html=1;exitX=1;exitY=0.5;exitDx=0;exitDy=0;" edge="1" parent="1" source="NCAZwiIMH78sjrAuGcfg-49">
          <mxGeometry relative="1" as="geometry">
            <mxPoint x="1480" y="980" as="targetPoint" />
            <Array as="points">
              <mxPoint x="2130" y="510" />
              <mxPoint x="2130" y="980" />
            </Array>
          </mxGeometry>
        </mxCell>
      </root>
    </mxGraphModel>
  </diagram>
</mxfile>
